%TF.GenerationSoftware,KiCad,Pcbnew,8.0.8*%
%TF.CreationDate,2025-12-22T10:58:06+04:00*%
%TF.ProjectId,DesignESP32PCB,44657369-676e-4455-9350-33325043422e,rev?*%
%TF.SameCoordinates,Original*%
%TF.FileFunction,Paste,Top*%
%TF.FilePolarity,Positive*%
%FSLAX46Y46*%
G04 Gerber Fmt 4.6, Leading zero omitted, Abs format (unit mm)*
G04 Created by KiCad (PCBNEW 8.0.8) date 2025-12-22 10:58:06*
%MOMM*%
%LPD*%
G01*
G04 APERTURE LIST*
G04 Aperture macros list*
%AMRoundRect*
0 Rectangle with rounded corners*
0 $1 Rounding radius*
0 $2 $3 $4 $5 $6 $7 $8 $9 X,Y pos of 4 corners*
0 Add a 4 corners polygon primitive as box body*
4,1,4,$2,$3,$4,$5,$6,$7,$8,$9,$2,$3,0*
0 Add four circle primitives for the rounded corners*
1,1,$1+$1,$2,$3*
1,1,$1+$1,$4,$5*
1,1,$1+$1,$6,$7*
1,1,$1+$1,$8,$9*
0 Add four rect primitives between the rounded corners*
20,1,$1+$1,$2,$3,$4,$5,0*
20,1,$1+$1,$4,$5,$6,$7,0*
20,1,$1+$1,$6,$7,$8,$9,0*
20,1,$1+$1,$8,$9,$2,$3,0*%
G04 Aperture macros list end*
%ADD10C,0.010000*%
%ADD11RoundRect,0.200000X-0.200000X-0.275000X0.200000X-0.275000X0.200000X0.275000X-0.200000X0.275000X0*%
%ADD12RoundRect,0.200000X0.275000X-0.200000X0.275000X0.200000X-0.275000X0.200000X-0.275000X-0.200000X0*%
%ADD13RoundRect,0.225000X-0.225000X-0.250000X0.225000X-0.250000X0.225000X0.250000X-0.225000X0.250000X0*%
%ADD14RoundRect,0.225000X0.250000X-0.225000X0.250000X0.225000X-0.250000X0.225000X-0.250000X-0.225000X0*%
%ADD15RoundRect,0.218750X0.218750X0.256250X-0.218750X0.256250X-0.218750X-0.256250X0.218750X-0.256250X0*%
%ADD16RoundRect,0.200000X0.200000X0.275000X-0.200000X0.275000X-0.200000X-0.275000X0.200000X-0.275000X0*%
%ADD17R,0.625000X0.250000*%
%ADD18R,0.700000X0.450000*%
%ADD19R,0.575000X0.450000*%
%ADD20RoundRect,0.200000X-0.275000X0.200000X-0.275000X-0.200000X0.275000X-0.200000X0.275000X0.200000X0*%
%ADD21RoundRect,0.225000X0.225000X0.250000X-0.225000X0.250000X-0.225000X-0.250000X0.225000X-0.250000X0*%
%ADD22R,0.650000X1.050000*%
%ADD23R,0.400000X0.800000*%
%ADD24R,0.800000X0.400000*%
%ADD25R,1.200000X1.200000*%
%ADD26R,0.800000X0.800000*%
%ADD27RoundRect,0.090000X0.360000X-0.660000X0.360000X0.660000X-0.360000X0.660000X-0.360000X-0.660000X0*%
%ADD28RoundRect,0.160000X0.160000X-0.245000X0.160000X0.245000X-0.160000X0.245000X-0.160000X-0.245000X0*%
%ADD29RoundRect,0.093750X0.106250X-0.093750X0.106250X0.093750X-0.106250X0.093750X-0.106250X-0.093750X0*%
%ADD30R,0.300000X0.500000*%
%ADD31R,0.800000X0.350000*%
%ADD32O,1.800000X1.000000*%
%ADD33O,2.100000X1.000000*%
%ADD34RoundRect,0.150000X0.425000X-0.150000X0.425000X0.150000X-0.425000X0.150000X-0.425000X-0.150000X0*%
%ADD35RoundRect,0.075000X0.500000X-0.075000X0.500000X0.075000X-0.500000X0.075000X-0.500000X-0.075000X0*%
G04 APERTURE END LIST*
D10*
%TO.C,U1*%
X162830000Y-97883200D02*
X162230000Y-97883200D01*
X161630000Y-97283200D01*
X161630000Y-96683200D01*
X162830000Y-96683200D01*
X162830000Y-97883200D01*
G36*
X162830000Y-97883200D02*
G01*
X162230000Y-97883200D01*
X161630000Y-97283200D01*
X161630000Y-96683200D01*
X162830000Y-96683200D01*
X162830000Y-97883200D01*
G37*
%TD*%
D11*
%TO.C,R5*%
X199636000Y-100451200D03*
X201286000Y-100451200D03*
%TD*%
D12*
%TO.C,R4*%
X201491000Y-103906200D03*
X201491000Y-102256200D03*
%TD*%
D13*
%TO.C,C5*%
X198656000Y-106371200D03*
X200206000Y-106371200D03*
%TD*%
D14*
%TO.C,C1*%
X184226000Y-102135200D03*
X184226000Y-103685200D03*
%TD*%
D15*
%TO.C,D2*%
X190492500Y-83500200D03*
X188917500Y-83500200D03*
%TD*%
D11*
%TO.C,R8*%
X185550000Y-83535200D03*
X187200000Y-83535200D03*
%TD*%
D16*
%TO.C,R6*%
X186395000Y-91435200D03*
X188045000Y-91435200D03*
%TD*%
D14*
%TO.C,C4*%
X210320000Y-105258200D03*
X210320000Y-103708200D03*
%TD*%
D17*
%TO.C,U2*%
X215372500Y-94903200D03*
X215372500Y-95403200D03*
D18*
X215410000Y-95903200D03*
D17*
X215372500Y-96403200D03*
X215372500Y-96903200D03*
X216147500Y-96903200D03*
X216147500Y-96403200D03*
D19*
X216172500Y-95903200D03*
D17*
X216147500Y-95403200D03*
X216147500Y-94903200D03*
%TD*%
D20*
%TO.C,R2*%
X216005000Y-98303200D03*
X216005000Y-99953200D03*
%TD*%
D21*
%TO.C,C7*%
X182875000Y-91365200D03*
X184425000Y-91365200D03*
%TD*%
D20*
%TO.C,R7*%
X187950000Y-89700200D03*
X187950000Y-88050200D03*
%TD*%
D22*
%TO.C,RESET1*%
X209339600Y-85284000D03*
X209339600Y-89434000D03*
X207189600Y-85284000D03*
X207189600Y-89434000D03*
%TD*%
D20*
%TO.C,R3*%
X211179600Y-90569000D03*
X211179600Y-88919000D03*
%TD*%
D22*
%TO.C,BOOT1*%
X206460000Y-105213200D03*
X206460000Y-101063200D03*
X208610000Y-105213200D03*
X208610000Y-101063200D03*
%TD*%
D23*
%TO.C,U1*%
X157930000Y-102633200D03*
X158780000Y-102633200D03*
X159630000Y-102633200D03*
X160480000Y-102633200D03*
X161330000Y-102633200D03*
X162180000Y-102633200D03*
X163030000Y-102633200D03*
X163880000Y-102633200D03*
X164730000Y-102633200D03*
X165580000Y-102633200D03*
X166430000Y-102633200D03*
X167280000Y-102633200D03*
X168130000Y-102633200D03*
X168980000Y-102633200D03*
X169830000Y-102633200D03*
D24*
X170880000Y-101583200D03*
X170880000Y-100733200D03*
X170880000Y-99883200D03*
X170880000Y-99033200D03*
X170880000Y-98183200D03*
X170880000Y-97333200D03*
X170880000Y-96483200D03*
X170880000Y-95633200D03*
X170880000Y-94783200D03*
X170880000Y-93933200D03*
X170880000Y-93083200D03*
X170880000Y-92233200D03*
X170880000Y-91383200D03*
X170880000Y-90533200D03*
X170880000Y-89683200D03*
D23*
X169830000Y-88633200D03*
X168980000Y-88633200D03*
X168130000Y-88633200D03*
X167280000Y-88633200D03*
X166430000Y-88633200D03*
X165580000Y-88633200D03*
X164730000Y-88633200D03*
X163880000Y-88633200D03*
X163030000Y-88633200D03*
X162180000Y-88633200D03*
X161330000Y-88633200D03*
X160480000Y-88633200D03*
X159630000Y-88633200D03*
X158780000Y-88633200D03*
X157930000Y-88633200D03*
D24*
X156880000Y-89683200D03*
X156880000Y-90533200D03*
X156880000Y-91383200D03*
X156880000Y-92233200D03*
X156880000Y-93083200D03*
X156880000Y-93933200D03*
X156880000Y-94783200D03*
X156880000Y-95633200D03*
X156880000Y-96483200D03*
X156880000Y-97333200D03*
X156880000Y-98183200D03*
X156880000Y-99033200D03*
X156880000Y-99883200D03*
X156880000Y-100733200D03*
X156880000Y-101583200D03*
D25*
X163880000Y-95633200D03*
X162230000Y-95633200D03*
X162230000Y-93983200D03*
X163880000Y-93983200D03*
X165530000Y-93983200D03*
X165530000Y-95633200D03*
X165530000Y-97283200D03*
X163880000Y-97283200D03*
D26*
X156880000Y-102633200D03*
X170880000Y-102633200D03*
X170880000Y-88633200D03*
X156880000Y-88633200D03*
%TD*%
D14*
%TO.C,C3*%
X211189600Y-85199000D03*
X211189600Y-86749000D03*
%TD*%
D21*
%TO.C,C6*%
X182855000Y-86475200D03*
X184405000Y-86475200D03*
%TD*%
D27*
%TO.C,D1*%
X191141000Y-105603200D03*
X194441000Y-105603200D03*
X194441000Y-100703200D03*
X191141000Y-100703200D03*
%TD*%
D28*
%TO.C,U3*%
X184920000Y-88915200D03*
X185720000Y-88915200D03*
D29*
X184670000Y-89802700D03*
X185320000Y-89802700D03*
X185970000Y-89802700D03*
X185970000Y-88027700D03*
X185320000Y-88027700D03*
X184670000Y-88027700D03*
%TD*%
D12*
%TO.C,R1*%
X215995000Y-90363200D03*
X215995000Y-92013200D03*
%TD*%
D30*
%TO.C,U4*%
X198681000Y-102101200D03*
X199631000Y-102101200D03*
X199631000Y-104001200D03*
X198681000Y-104001200D03*
D31*
X199156000Y-103051200D03*
%TD*%
D32*
%TO.C,JUSB1*%
X223570000Y-90878200D03*
D33*
X219390000Y-90878200D03*
D32*
X223570000Y-99518200D03*
D33*
X219390000Y-99518200D03*
D34*
X218815000Y-98398200D03*
X218815000Y-97598200D03*
D35*
X218815000Y-96948200D03*
X218815000Y-95948200D03*
X218815000Y-94448200D03*
X218815000Y-93448200D03*
D34*
X218815000Y-92798200D03*
X218815000Y-91998200D03*
X218815000Y-91998200D03*
X218815000Y-92798200D03*
D35*
X218815000Y-93948200D03*
X218815000Y-94948200D03*
X218815000Y-95448200D03*
X218815000Y-96448200D03*
D34*
X218815000Y-97598200D03*
X218815000Y-98398200D03*
%TD*%
D14*
%TO.C,C2*%
X186420000Y-103715200D03*
X186420000Y-102165200D03*
%TD*%
M02*
