%TF.GenerationSoftware,KiCad,Pcbnew,8.0.8*%
%TF.CreationDate,2025-12-22T10:58:06+04:00*%
%TF.ProjectId,DesignESP32PCB,44657369-676e-4455-9350-33325043422e,rev?*%
%TF.SameCoordinates,Original*%
%TF.FileFunction,Legend,Bot*%
%TF.FilePolarity,Positive*%
%FSLAX46Y46*%
G04 Gerber Fmt 4.6, Leading zero omitted, Abs format (unit mm)*
G04 Created by KiCad (PCBNEW 8.0.8) date 2025-12-22 10:58:06*
%MOMM*%
%LPD*%
G01*
G04 APERTURE LIST*
%ADD10C,0.125000*%
%ADD11C,0.187500*%
G04 APERTURE END LIST*
D10*
G36*
X197459763Y-95829000D02*
G01*
X197459763Y-96313577D01*
X197826860Y-96313577D01*
X197826860Y-96258867D01*
X197525342Y-96258867D01*
X197525342Y-96102551D01*
X197806221Y-96102551D01*
X197806221Y-96047841D01*
X197525342Y-96047841D01*
X197525342Y-95883710D01*
X197840904Y-95883710D01*
X197840904Y-95829000D01*
X197459763Y-95829000D01*
G37*
G36*
X198305454Y-95962234D02*
G01*
X198303186Y-95936325D01*
X198296384Y-95912239D01*
X198293608Y-95905692D01*
X198280765Y-95884394D01*
X198262967Y-95865808D01*
X198256972Y-95860995D01*
X198234792Y-95847085D01*
X198210526Y-95836678D01*
X198194690Y-95831686D01*
X198169822Y-95826148D01*
X198145116Y-95822917D01*
X198118207Y-95821348D01*
X198105541Y-95821184D01*
X198078275Y-95821956D01*
X198052960Y-95824273D01*
X198025155Y-95829091D01*
X198000157Y-95836134D01*
X197974543Y-95847161D01*
X197964735Y-95852813D01*
X197944422Y-95867995D01*
X197927616Y-95885865D01*
X197914316Y-95906423D01*
X197904522Y-95929670D01*
X197900499Y-95944160D01*
X197964002Y-95956861D01*
X197972975Y-95933510D01*
X197978657Y-95923888D01*
X197995716Y-95905475D01*
X198005646Y-95898364D01*
X198028747Y-95887384D01*
X198047778Y-95881756D01*
X198073509Y-95877548D01*
X198099282Y-95875986D01*
X198107861Y-95875894D01*
X198132488Y-95876806D01*
X198156851Y-95879806D01*
X198161473Y-95880657D01*
X198185459Y-95887260D01*
X198203360Y-95895434D01*
X198223075Y-95911049D01*
X198230715Y-95921201D01*
X198239331Y-95944508D01*
X198240485Y-95958815D01*
X198236654Y-95983907D01*
X198229616Y-95997405D01*
X198211672Y-96014698D01*
X198199208Y-96021951D01*
X198176311Y-96031306D01*
X198152558Y-96038071D01*
X198127714Y-96044052D01*
X198102635Y-96049982D01*
X198092474Y-96052360D01*
X198068315Y-96057925D01*
X198051685Y-96062129D01*
X198028027Y-96069199D01*
X198012484Y-96074830D01*
X197989987Y-96085143D01*
X197977314Y-96092293D01*
X197957621Y-96107120D01*
X197948859Y-96116229D01*
X197935308Y-96136555D01*
X197929930Y-96148713D01*
X197924220Y-96172635D01*
X197923092Y-96191334D01*
X197925049Y-96215846D01*
X197932282Y-96240884D01*
X197937013Y-96250441D01*
X197951252Y-96270343D01*
X197969605Y-96286879D01*
X197975604Y-96290985D01*
X197997197Y-96302453D01*
X198021693Y-96311059D01*
X198033978Y-96314066D01*
X198060030Y-96318531D01*
X198085269Y-96320813D01*
X198106884Y-96321393D01*
X198133708Y-96320701D01*
X198160294Y-96318343D01*
X198183821Y-96314310D01*
X198208165Y-96307465D01*
X198230685Y-96297434D01*
X198237799Y-96293183D01*
X198257582Y-96277460D01*
X198272969Y-96258378D01*
X198284846Y-96235939D01*
X198293595Y-96211851D01*
X198294096Y-96210140D01*
X198229494Y-96198783D01*
X198219369Y-96222000D01*
X198215572Y-96227726D01*
X198197949Y-96245153D01*
X198191759Y-96249097D01*
X198168439Y-96258999D01*
X198155855Y-96262164D01*
X198131305Y-96265690D01*
X198106152Y-96266683D01*
X198080560Y-96265756D01*
X198055488Y-96262382D01*
X198049609Y-96261065D01*
X198025634Y-96252930D01*
X198012851Y-96245678D01*
X197995468Y-96227743D01*
X197992945Y-96222963D01*
X197987055Y-96198506D01*
X197986961Y-96194753D01*
X197991159Y-96170586D01*
X197997708Y-96158972D01*
X198016289Y-96142022D01*
X198027139Y-96135769D01*
X198049877Y-96126293D01*
X198070126Y-96120259D01*
X198095313Y-96114031D01*
X198120313Y-96108192D01*
X198122027Y-96107803D01*
X198147092Y-96101955D01*
X198166480Y-96097300D01*
X198190767Y-96090598D01*
X198208856Y-96084478D01*
X198232025Y-96074829D01*
X198246836Y-96067136D01*
X198267157Y-96052854D01*
X198277610Y-96042590D01*
X198291702Y-96022526D01*
X198298004Y-96008518D01*
X198304028Y-95984196D01*
X198305454Y-95962234D01*
G37*
G36*
X198458350Y-96016578D02*
G01*
X198600499Y-96016578D01*
X198623043Y-96017505D01*
X198648394Y-96021158D01*
X198673284Y-96028302D01*
X198682797Y-96032171D01*
X198705131Y-96044157D01*
X198725307Y-96060175D01*
X198730337Y-96065356D01*
X198745417Y-96085261D01*
X198756570Y-96107925D01*
X198759596Y-96116616D01*
X198765339Y-96142061D01*
X198767073Y-96167154D01*
X198766813Y-96177279D01*
X198763711Y-96202295D01*
X198756448Y-96227115D01*
X198753624Y-96233769D01*
X198741095Y-96255104D01*
X198724452Y-96273399D01*
X198717550Y-96279179D01*
X198695430Y-96293111D01*
X198671207Y-96303075D01*
X198647981Y-96309054D01*
X198622128Y-96312552D01*
X198596347Y-96313577D01*
X198392771Y-96313577D01*
X198392771Y-96258867D01*
X198458350Y-96258867D01*
X198588531Y-96258867D01*
X198602165Y-96258501D01*
X198626788Y-96255570D01*
X198650273Y-96248769D01*
X198672917Y-96235420D01*
X198688978Y-96216731D01*
X198698372Y-96192905D01*
X198701127Y-96166787D01*
X198698527Y-96139971D01*
X198689662Y-96115349D01*
X198674505Y-96095835D01*
X198665452Y-96088763D01*
X198642945Y-96078216D01*
X198617672Y-96072823D01*
X198591218Y-96071288D01*
X198458350Y-96071288D01*
X198458350Y-96258867D01*
X198392771Y-96258867D01*
X198392771Y-95829000D01*
X198458350Y-95829000D01*
X198458350Y-96016578D01*
G37*
G36*
X199161769Y-95962112D02*
G01*
X199159975Y-95936193D01*
X199154032Y-95910895D01*
X199150900Y-95902517D01*
X199138598Y-95879760D01*
X199121842Y-95860492D01*
X199119271Y-95858187D01*
X199099189Y-95844008D01*
X199075273Y-95833102D01*
X199067736Y-95830587D01*
X199043510Y-95824857D01*
X199019130Y-95821928D01*
X198997638Y-95821184D01*
X198970869Y-95822269D01*
X198944647Y-95825970D01*
X198921801Y-95832297D01*
X198898649Y-95842594D01*
X198877638Y-95856299D01*
X198871120Y-95861850D01*
X198854632Y-95880238D01*
X198841836Y-95902277D01*
X198841200Y-95903738D01*
X198833018Y-95927674D01*
X198828256Y-95952342D01*
X198892247Y-95958204D01*
X198898135Y-95934407D01*
X198902261Y-95924621D01*
X198916389Y-95904310D01*
X198922411Y-95898609D01*
X198943697Y-95885508D01*
X198953674Y-95881756D01*
X198978128Y-95876862D01*
X198997638Y-95875894D01*
X199022295Y-95877681D01*
X199045975Y-95883859D01*
X199067505Y-95895751D01*
X199070911Y-95898487D01*
X199087134Y-95918505D01*
X199095427Y-95942256D01*
X199097533Y-95965531D01*
X199094190Y-95990629D01*
X199085688Y-96007907D01*
X199067616Y-96025854D01*
X199056134Y-96032820D01*
X199032807Y-96041674D01*
X199017666Y-96044788D01*
X198993003Y-96047412D01*
X198979442Y-96047841D01*
X198944393Y-96047841D01*
X198944393Y-96102551D01*
X198978099Y-96102551D01*
X199002746Y-96104225D01*
X199014369Y-96106093D01*
X199037793Y-96113213D01*
X199048929Y-96118916D01*
X199067825Y-96134737D01*
X199074697Y-96143951D01*
X199083407Y-96167230D01*
X199084833Y-96184495D01*
X199081621Y-96210747D01*
X199070894Y-96234149D01*
X199061996Y-96244579D01*
X199039793Y-96258890D01*
X199015307Y-96265301D01*
X198994219Y-96266683D01*
X198967940Y-96264316D01*
X198943485Y-96256336D01*
X198928029Y-96246655D01*
X198911055Y-96227781D01*
X198901015Y-96203505D01*
X198898720Y-96190479D01*
X198836560Y-96195242D01*
X198841268Y-96219868D01*
X198849990Y-96243323D01*
X198854023Y-96250929D01*
X198868570Y-96271369D01*
X198886338Y-96288267D01*
X198888950Y-96290252D01*
X198910071Y-96303163D01*
X198933822Y-96312585D01*
X198937188Y-96313577D01*
X198961588Y-96318920D01*
X198987344Y-96321271D01*
X198994951Y-96321393D01*
X199021484Y-96320181D01*
X199047367Y-96316094D01*
X199064683Y-96311135D01*
X199088188Y-96300863D01*
X199108858Y-96286745D01*
X199112432Y-96283535D01*
X199128522Y-96264637D01*
X199139665Y-96242625D01*
X199146260Y-96218384D01*
X199148458Y-96192555D01*
X199146391Y-96168124D01*
X199142596Y-96152499D01*
X199132115Y-96129714D01*
X199124400Y-96119038D01*
X199106311Y-96102141D01*
X199092893Y-96093515D01*
X199070480Y-96083578D01*
X199047097Y-96077272D01*
X199047097Y-96075929D01*
X199071187Y-96071818D01*
X199095168Y-96063858D01*
X199097900Y-96062618D01*
X199119821Y-96049592D01*
X199133559Y-96037217D01*
X199148452Y-96016666D01*
X199154686Y-96002778D01*
X199160773Y-95977848D01*
X199161769Y-95962112D01*
G37*
G36*
X199226249Y-95829000D02*
G01*
X199226249Y-95874429D01*
X199237927Y-95898610D01*
X199251132Y-95920930D01*
X199265862Y-95941390D01*
X199268992Y-95945259D01*
X199285042Y-95963909D01*
X199303275Y-95983074D01*
X199322115Y-96000824D01*
X199341185Y-96017519D01*
X199360111Y-96033348D01*
X199377191Y-96046986D01*
X199396952Y-96062998D01*
X199416654Y-96080304D01*
X199426528Y-96089607D01*
X199444150Y-96108597D01*
X199458545Y-96128382D01*
X199462066Y-96134181D01*
X199471796Y-96157417D01*
X199475502Y-96181573D01*
X199475621Y-96187060D01*
X199472677Y-96211675D01*
X199469393Y-96221376D01*
X199455762Y-96242442D01*
X199451563Y-96246411D01*
X199430413Y-96259118D01*
X199423475Y-96261554D01*
X199399411Y-96266182D01*
X199387327Y-96266683D01*
X199362843Y-96264374D01*
X199352401Y-96261798D01*
X199330030Y-96251654D01*
X199323458Y-96247021D01*
X199306446Y-96228774D01*
X199302697Y-96222597D01*
X199294013Y-96199246D01*
X199292195Y-96188769D01*
X199228936Y-96194631D01*
X199234065Y-96219971D01*
X199243346Y-96243724D01*
X199256841Y-96265370D01*
X199274609Y-96284146D01*
X199295042Y-96298767D01*
X199317308Y-96309459D01*
X199322481Y-96311379D01*
X199346733Y-96317863D01*
X199371661Y-96320914D01*
X199387327Y-96321393D01*
X199413231Y-96320191D01*
X199438773Y-96316175D01*
X199451441Y-96312845D01*
X199474442Y-96303775D01*
X199495351Y-96290530D01*
X199499069Y-96287443D01*
X199516196Y-96268698D01*
X199528744Y-96245922D01*
X199536195Y-96221158D01*
X199539033Y-96195092D01*
X199539124Y-96189136D01*
X199536643Y-96163874D01*
X199530332Y-96142729D01*
X199519430Y-96120055D01*
X199507006Y-96100964D01*
X199491283Y-96081486D01*
X199474380Y-96063779D01*
X199473179Y-96062618D01*
X199454802Y-96045403D01*
X199435619Y-96028565D01*
X199433001Y-96026348D01*
X199413316Y-96009915D01*
X199393416Y-95993590D01*
X199390747Y-95991421D01*
X199371362Y-95975224D01*
X199353051Y-95958920D01*
X199350691Y-95956739D01*
X199332983Y-95939122D01*
X199317230Y-95921201D01*
X199302693Y-95900503D01*
X199294271Y-95883710D01*
X199546696Y-95883710D01*
X199546696Y-95829000D01*
X199226249Y-95829000D01*
G37*
G36*
X199834311Y-95829390D02*
G01*
X199861216Y-95832062D01*
X199887059Y-95837264D01*
X199911839Y-95844997D01*
X199925027Y-95850366D01*
X199947339Y-95861894D01*
X199967815Y-95875817D01*
X199986455Y-95892136D01*
X199996011Y-95902235D01*
X200011560Y-95922260D01*
X200024983Y-95944661D01*
X200036281Y-95969439D01*
X200038484Y-95975280D01*
X200045876Y-95999762D01*
X200050994Y-96026030D01*
X200053606Y-96050479D01*
X200054477Y-96076295D01*
X200054458Y-96080148D01*
X200053286Y-96106177D01*
X200049714Y-96133906D01*
X200043761Y-96159483D01*
X200035426Y-96182907D01*
X200029106Y-96196493D01*
X200015881Y-96219025D01*
X200000280Y-96239083D01*
X199982303Y-96256669D01*
X199971369Y-96265382D01*
X199950049Y-96279202D01*
X199926624Y-96290627D01*
X199901092Y-96299655D01*
X199876966Y-96305746D01*
X199851725Y-96310097D01*
X199825369Y-96312707D01*
X199797900Y-96313577D01*
X199637921Y-96313577D01*
X199637921Y-96258867D01*
X199703500Y-96258867D01*
X199796556Y-96258867D01*
X199799190Y-96258857D01*
X199824783Y-96257640D01*
X199849017Y-96254396D01*
X199874103Y-96248487D01*
X199891185Y-96242564D01*
X199914461Y-96230932D01*
X199934920Y-96216002D01*
X199948310Y-96202583D01*
X199963368Y-96181626D01*
X199974365Y-96159338D01*
X199976897Y-96152755D01*
X199983537Y-96128999D01*
X199987411Y-96102452D01*
X199988531Y-96076173D01*
X199988413Y-96067345D01*
X199986642Y-96042084D01*
X199982182Y-96016169D01*
X199975098Y-95992520D01*
X199966789Y-95973193D01*
X199954404Y-95952115D01*
X199938095Y-95932314D01*
X199925700Y-95921018D01*
X199905046Y-95906821D01*
X199881919Y-95895922D01*
X199861068Y-95889482D01*
X199836864Y-95885153D01*
X199811333Y-95883710D01*
X199703500Y-95883710D01*
X199703500Y-96258867D01*
X199637921Y-96258867D01*
X199637921Y-95829000D01*
X199818905Y-95829000D01*
X199834311Y-95829390D01*
G37*
G36*
X200297361Y-95821463D02*
G01*
X200322147Y-95823695D01*
X200347202Y-95829122D01*
X200368493Y-95836909D01*
X200390921Y-95849394D01*
X200402160Y-95858220D01*
X200418887Y-95876993D01*
X200424428Y-95885639D01*
X200435251Y-95907646D01*
X200381030Y-95922789D01*
X200380480Y-95921316D01*
X200367501Y-95899926D01*
X200348179Y-95883588D01*
X200333312Y-95876091D01*
X200309553Y-95869911D01*
X200283821Y-95868078D01*
X200261274Y-95869948D01*
X200236682Y-95877848D01*
X200221955Y-95887076D01*
X200204564Y-95905203D01*
X200194221Y-95923280D01*
X200186002Y-95947335D01*
X200184932Y-95951977D01*
X200181163Y-95976380D01*
X200180018Y-96000946D01*
X200445265Y-96000946D01*
X200445265Y-96009373D01*
X200445258Y-96012054D01*
X200444313Y-96038219D01*
X200441794Y-96063216D01*
X200437205Y-96089362D01*
X200432488Y-96107253D01*
X200422837Y-96131800D01*
X200410094Y-96153598D01*
X200399790Y-96166535D01*
X200381415Y-96183165D01*
X200359536Y-96196463D01*
X200355553Y-96198341D01*
X200331496Y-96206505D01*
X200306471Y-96210745D01*
X200281378Y-96211972D01*
X200266558Y-96211481D01*
X200242049Y-96208356D01*
X200216776Y-96201714D01*
X200205727Y-96197416D01*
X200183583Y-96185012D01*
X200163898Y-96168375D01*
X200151943Y-96154369D01*
X200138347Y-96132298D01*
X200128238Y-96108658D01*
X200124474Y-96096777D01*
X200118859Y-96070654D01*
X200116359Y-96047841D01*
X200180750Y-96047841D01*
X200181220Y-96056411D01*
X200184590Y-96081599D01*
X200191986Y-96105605D01*
X200200847Y-96122488D01*
X200216410Y-96141508D01*
X200225731Y-96148964D01*
X200247917Y-96159826D01*
X200255268Y-96161873D01*
X200280279Y-96165078D01*
X200307160Y-96162335D01*
X200331826Y-96152981D01*
X200351354Y-96136990D01*
X200362520Y-96120885D01*
X200372145Y-96097841D01*
X200378089Y-96072977D01*
X200381274Y-96047841D01*
X200180750Y-96047841D01*
X200116359Y-96047841D01*
X200115988Y-96044452D01*
X200115171Y-96019020D01*
X200115845Y-95995230D01*
X200118581Y-95967616D01*
X200123422Y-95942364D01*
X200132011Y-95915179D01*
X200143630Y-95891394D01*
X200158280Y-95871009D01*
X200163822Y-95864976D01*
X200185639Y-95846924D01*
X200207335Y-95835246D01*
X200231795Y-95827071D01*
X200259021Y-95822400D01*
X200283821Y-95821184D01*
X200297361Y-95821463D01*
G37*
G36*
X200685112Y-95829000D02*
G01*
X200611961Y-95829000D01*
X200477017Y-96204157D01*
X200542963Y-96204157D01*
X200624662Y-95959792D01*
X200630279Y-95941107D01*
X200636996Y-95918392D01*
X200643346Y-95895678D01*
X200648353Y-95877482D01*
X200653605Y-95895678D01*
X200660321Y-95918026D01*
X200667404Y-95940496D01*
X200673755Y-95959059D01*
X200758263Y-96204157D01*
X200823842Y-96204157D01*
X200685112Y-95829000D01*
G37*
G36*
X201096417Y-96266683D02*
G01*
X201071549Y-96265335D01*
X201046343Y-96260740D01*
X201023388Y-96252883D01*
X201001017Y-96240959D01*
X200981531Y-96225703D01*
X200970143Y-96213682D01*
X200955500Y-96193171D01*
X200943811Y-96169741D01*
X200937659Y-96152499D01*
X200931401Y-96127031D01*
X200927967Y-96102225D01*
X200926679Y-96075845D01*
X200926668Y-96073120D01*
X200927825Y-96046587D01*
X200931295Y-96021486D01*
X200937785Y-95995527D01*
X200938514Y-95993253D01*
X200947870Y-95969515D01*
X200960842Y-95946351D01*
X200972464Y-95930849D01*
X200990524Y-95912897D01*
X201011367Y-95898242D01*
X201026808Y-95890304D01*
X201049841Y-95882100D01*
X201074779Y-95877301D01*
X201099103Y-95875894D01*
X201124363Y-95877531D01*
X201148940Y-95882885D01*
X201150394Y-95883344D01*
X201173772Y-95892982D01*
X201192282Y-95904348D01*
X201211092Y-95920130D01*
X201225743Y-95936344D01*
X201240479Y-95957204D01*
X201251877Y-95977499D01*
X201305489Y-95950388D01*
X201293844Y-95928708D01*
X201280143Y-95908317D01*
X201273127Y-95899341D01*
X201256440Y-95881199D01*
X201237536Y-95865072D01*
X201228064Y-95858309D01*
X201205879Y-95845448D01*
X201183362Y-95835760D01*
X201169323Y-95831076D01*
X201143678Y-95825048D01*
X201118238Y-95821966D01*
X201096050Y-95821184D01*
X201071047Y-95822084D01*
X201044174Y-95825316D01*
X201019119Y-95830899D01*
X200995879Y-95838833D01*
X200993102Y-95839990D01*
X200969444Y-95851738D01*
X200948065Y-95865823D01*
X200928966Y-95882246D01*
X200919341Y-95892381D01*
X200903827Y-95912325D01*
X200890670Y-95934240D01*
X200879870Y-95958126D01*
X200874889Y-95972248D01*
X200868424Y-95995924D01*
X200863806Y-96020669D01*
X200861035Y-96046482D01*
X200860112Y-96073364D01*
X200861089Y-96101124D01*
X200864020Y-96127495D01*
X200868905Y-96152476D01*
X200875743Y-96176069D01*
X200885676Y-96200815D01*
X200897888Y-96223398D01*
X200912381Y-96243817D01*
X200921417Y-96254226D01*
X200939417Y-96271242D01*
X200959619Y-96285881D01*
X200982024Y-96298144D01*
X200995422Y-96303930D01*
X201021128Y-96312371D01*
X201045615Y-96317556D01*
X201071644Y-96320557D01*
X201095684Y-96321393D01*
X201123775Y-96320328D01*
X201150072Y-96317134D01*
X201174574Y-96311810D01*
X201200892Y-96302908D01*
X201224766Y-96291107D01*
X201246159Y-96276460D01*
X201264921Y-96259020D01*
X201281054Y-96238787D01*
X201294557Y-96215760D01*
X201301092Y-96201348D01*
X201238933Y-96180709D01*
X201227220Y-96203299D01*
X201220370Y-96213071D01*
X201203426Y-96231027D01*
X201191061Y-96240427D01*
X201169483Y-96252345D01*
X201150028Y-96259478D01*
X201124902Y-96264881D01*
X201100161Y-96266655D01*
X201096417Y-96266683D01*
G37*
G36*
X201697376Y-95822771D02*
G01*
X201720579Y-95827412D01*
X201720579Y-95870521D01*
X201710565Y-95868689D01*
X201700307Y-95868078D01*
X201693165Y-95868572D01*
X201672830Y-95882122D01*
X201667658Y-95898294D01*
X201665625Y-95923888D01*
X201665625Y-96085699D01*
X201663930Y-96111182D01*
X201657843Y-96136900D01*
X201647329Y-96158985D01*
X201630210Y-96179488D01*
X201623286Y-96185293D01*
X201601833Y-96197982D01*
X201576029Y-96206611D01*
X201549882Y-96210830D01*
X201524819Y-96211972D01*
X201511059Y-96211702D01*
X201485883Y-96209538D01*
X201460461Y-96204279D01*
X201437461Y-96195812D01*
X201416131Y-96182907D01*
X201403153Y-96170849D01*
X201388898Y-96150179D01*
X201381648Y-96132892D01*
X201375831Y-96108535D01*
X201440311Y-96102551D01*
X201441244Y-96109285D01*
X201448859Y-96133204D01*
X201449275Y-96133962D01*
X201466078Y-96152499D01*
X201468104Y-96153789D01*
X201491113Y-96162269D01*
X201498586Y-96163498D01*
X201523475Y-96165078D01*
X201534453Y-96164691D01*
X201558646Y-96160193D01*
X201563215Y-96158564D01*
X201583559Y-96144928D01*
X201587689Y-96140077D01*
X201598336Y-96117695D01*
X201601675Y-96101569D01*
X201603221Y-96076784D01*
X201603221Y-96055657D01*
X201519812Y-96054314D01*
X201512347Y-96054060D01*
X201486461Y-96052060D01*
X201460949Y-96048330D01*
X201455601Y-96047295D01*
X201432120Y-96040536D01*
X201409658Y-96029767D01*
X201408262Y-96028918D01*
X201388196Y-96012599D01*
X201373266Y-95992642D01*
X201367841Y-95981694D01*
X201361302Y-95957981D01*
X201359344Y-95932192D01*
X201359404Y-95929872D01*
X201422847Y-95929872D01*
X201423915Y-95945622D01*
X201431884Y-95969439D01*
X201437529Y-95977426D01*
X201456431Y-95993009D01*
X201467671Y-95998138D01*
X201492334Y-96004244D01*
X201510707Y-96006234D01*
X201535565Y-96007419D01*
X201603221Y-96008762D01*
X201603221Y-95978842D01*
X201602207Y-95965304D01*
X201596016Y-95941595D01*
X201588932Y-95926303D01*
X201574156Y-95905692D01*
X201558841Y-95891524D01*
X201537397Y-95878581D01*
X201534605Y-95877309D01*
X201510173Y-95870089D01*
X201485740Y-95868078D01*
X201460406Y-95871620D01*
X201439090Y-95884198D01*
X201426416Y-95905117D01*
X201422847Y-95929872D01*
X201359404Y-95929872D01*
X201359591Y-95922700D01*
X201363294Y-95896540D01*
X201372620Y-95871553D01*
X201387432Y-95850859D01*
X201396928Y-95842310D01*
X201419997Y-95829559D01*
X201445409Y-95823038D01*
X201471696Y-95821184D01*
X201493394Y-95822259D01*
X201517858Y-95826801D01*
X201531191Y-95831128D01*
X201553762Y-95842433D01*
X201563226Y-95849262D01*
X201581361Y-95867224D01*
X201589988Y-95878604D01*
X201603221Y-95899708D01*
X201605297Y-95899708D01*
X201605984Y-95890243D01*
X201610426Y-95865514D01*
X201611237Y-95862807D01*
X201622394Y-95840845D01*
X201642788Y-95826069D01*
X201648525Y-95824165D01*
X201672830Y-95821184D01*
X201697376Y-95822771D01*
G37*
G36*
X201767474Y-95829000D02*
G01*
X201767474Y-96116840D01*
X201767352Y-96140898D01*
X201766863Y-96164589D01*
X201766131Y-96186083D01*
X201765520Y-96204157D01*
X201823772Y-96204157D01*
X201824627Y-96186327D01*
X201825726Y-96165933D01*
X201826337Y-96145660D01*
X201826581Y-96129296D01*
X201827924Y-96129296D01*
X201836013Y-96152549D01*
X201841846Y-96166177D01*
X201854976Y-96187247D01*
X201859187Y-96191944D01*
X201879517Y-96205662D01*
X201882879Y-96206965D01*
X201906876Y-96211659D01*
X201916340Y-96211972D01*
X201930628Y-96210751D01*
X201941375Y-96208675D01*
X201941375Y-96153842D01*
X201926842Y-96156407D01*
X201908402Y-96157262D01*
X201884274Y-96153398D01*
X201872132Y-96147370D01*
X201854186Y-96130358D01*
X201847708Y-96120259D01*
X201838263Y-96097298D01*
X201833786Y-96078860D01*
X201830489Y-96053825D01*
X201829394Y-96028358D01*
X201829390Y-96026592D01*
X201829390Y-95829000D01*
X201767474Y-95829000D01*
G37*
G36*
X202140452Y-95822391D02*
G01*
X202165027Y-95827147D01*
X202188182Y-95836449D01*
X202203240Y-95846610D01*
X202220582Y-95865057D01*
X202233734Y-95886885D01*
X202235077Y-95886885D01*
X202235443Y-95869422D01*
X202236298Y-95852569D01*
X202237275Y-95838403D01*
X202238496Y-95829000D01*
X202297603Y-95829000D01*
X202296870Y-95839380D01*
X202296260Y-95857087D01*
X202295649Y-95879680D01*
X202295642Y-95880452D01*
X202295527Y-95905325D01*
X202295527Y-96337025D01*
X202233734Y-96337025D01*
X202233734Y-96196829D01*
X202233734Y-96186693D01*
X202233856Y-96171794D01*
X202234222Y-96156773D01*
X202234466Y-96146271D01*
X202233734Y-96146271D01*
X202225674Y-96160348D01*
X202209411Y-96180375D01*
X202188304Y-96196219D01*
X202167320Y-96205188D01*
X202142988Y-96210434D01*
X202117963Y-96211972D01*
X202085934Y-96208893D01*
X202058176Y-96199653D01*
X202034689Y-96184255D01*
X202015472Y-96162696D01*
X202000526Y-96134979D01*
X201992118Y-96110148D01*
X201986113Y-96081853D01*
X201982510Y-96050093D01*
X201981342Y-96015845D01*
X202046155Y-96015845D01*
X202046406Y-96033005D01*
X202048006Y-96059729D01*
X202051406Y-96084844D01*
X202057183Y-96107768D01*
X202067771Y-96131128D01*
X202075177Y-96141317D01*
X202095248Y-96157018D01*
X202109671Y-96162236D01*
X202134449Y-96165078D01*
X202153049Y-96163828D01*
X202176825Y-96157506D01*
X202189848Y-96150562D01*
X202207966Y-96132960D01*
X202219703Y-96111761D01*
X202227139Y-96088019D01*
X202230327Y-96071440D01*
X202232954Y-96046270D01*
X202233734Y-96020120D01*
X202233321Y-95999924D01*
X202231409Y-95974796D01*
X202227139Y-95949045D01*
X202219729Y-95924326D01*
X202208088Y-95902150D01*
X202197853Y-95890077D01*
X202176825Y-95876138D01*
X202158047Y-95870353D01*
X202133716Y-95868078D01*
X202116961Y-95869246D01*
X202093538Y-95876383D01*
X202082896Y-95883301D01*
X202066427Y-95902761D01*
X202056759Y-95924756D01*
X202050918Y-95948801D01*
X202048616Y-95965410D01*
X202046718Y-95990292D01*
X202046155Y-96015845D01*
X201981342Y-96015845D01*
X201981309Y-96014868D01*
X201981600Y-95997008D01*
X201983377Y-95969172D01*
X201986771Y-95943751D01*
X201992976Y-95916434D01*
X202001508Y-95892595D01*
X202014404Y-95869177D01*
X202023288Y-95857929D01*
X202044537Y-95839931D01*
X202066937Y-95829105D01*
X202092889Y-95822871D01*
X202117963Y-95821184D01*
X202140452Y-95822391D01*
G37*
G36*
X202551616Y-95829000D02*
G01*
X202478465Y-95829000D01*
X202343521Y-96204157D01*
X202409466Y-96204157D01*
X202491166Y-95959792D01*
X202496783Y-95941107D01*
X202503500Y-95918392D01*
X202509850Y-95895678D01*
X202514857Y-95877482D01*
X202520108Y-95895678D01*
X202526825Y-95918026D01*
X202533908Y-95940496D01*
X202540258Y-95959059D01*
X202624766Y-96204157D01*
X202690346Y-96204157D01*
X202551616Y-95829000D01*
G37*
G36*
X202744445Y-95829000D02*
G01*
X202744445Y-95883710D01*
X202867666Y-95883710D01*
X202867666Y-96254471D01*
X202758489Y-96172893D01*
X202758489Y-96231267D01*
X202872917Y-96313577D01*
X202929948Y-96313577D01*
X202929948Y-95883710D01*
X203047673Y-95883710D01*
X203047673Y-95829000D01*
X202744445Y-95829000D01*
G37*
D11*
G36*
X197141127Y-99418157D02*
G01*
X197175932Y-99425118D01*
X197175932Y-99489781D01*
X197160911Y-99487034D01*
X197145524Y-99486118D01*
X197134810Y-99486858D01*
X197104308Y-99507184D01*
X197096550Y-99531441D01*
X197093500Y-99569832D01*
X197093500Y-99812548D01*
X197090958Y-99850774D01*
X197081827Y-99889351D01*
X197066057Y-99922478D01*
X197040377Y-99953232D01*
X197029992Y-99961940D01*
X196997812Y-99980974D01*
X196959106Y-99993917D01*
X196919885Y-100000246D01*
X196882291Y-100001959D01*
X196861651Y-100001553D01*
X196823887Y-99998307D01*
X196785754Y-99990418D01*
X196751254Y-99977718D01*
X196719259Y-99958361D01*
X196699792Y-99940273D01*
X196678409Y-99909269D01*
X196667535Y-99883338D01*
X196658809Y-99846803D01*
X196755529Y-99837827D01*
X196756929Y-99847928D01*
X196768352Y-99883806D01*
X196768976Y-99884944D01*
X196794180Y-99912749D01*
X196797218Y-99914683D01*
X196831733Y-99927404D01*
X196842941Y-99929247D01*
X196880276Y-99931617D01*
X196896743Y-99931037D01*
X196933032Y-99924289D01*
X196939886Y-99921847D01*
X196970402Y-99901392D01*
X196976596Y-99894115D01*
X196992567Y-99860542D01*
X196997575Y-99836354D01*
X196999894Y-99799176D01*
X196999894Y-99767486D01*
X196874780Y-99765471D01*
X196863583Y-99765090D01*
X196824755Y-99762090D01*
X196786487Y-99756495D01*
X196778465Y-99754943D01*
X196743242Y-99744805D01*
X196709550Y-99728651D01*
X196707456Y-99727377D01*
X196677357Y-99702899D01*
X196654962Y-99672964D01*
X196646825Y-99656541D01*
X196637016Y-99620971D01*
X196634079Y-99582288D01*
X196634169Y-99578808D01*
X196729334Y-99578808D01*
X196730936Y-99602433D01*
X196742889Y-99638159D01*
X196751356Y-99650139D01*
X196779709Y-99673513D01*
X196796569Y-99681207D01*
X196833564Y-99690366D01*
X196861123Y-99693351D01*
X196898411Y-99695129D01*
X196999894Y-99697144D01*
X196999894Y-99652264D01*
X196998374Y-99631957D01*
X196989086Y-99596393D01*
X196978461Y-99573454D01*
X196956296Y-99542538D01*
X196933324Y-99521286D01*
X196901159Y-99501871D01*
X196896971Y-99499964D01*
X196860323Y-99489133D01*
X196823673Y-99486118D01*
X196785671Y-99491431D01*
X196753697Y-99510298D01*
X196734687Y-99541676D01*
X196729334Y-99578808D01*
X196634169Y-99578808D01*
X196634449Y-99568050D01*
X196640004Y-99528811D01*
X196653993Y-99491330D01*
X196676211Y-99460289D01*
X196690454Y-99447465D01*
X196725058Y-99428339D01*
X196763177Y-99418558D01*
X196802607Y-99415776D01*
X196835154Y-99417389D01*
X196871850Y-99424202D01*
X196891850Y-99430692D01*
X196925705Y-99447650D01*
X196939902Y-99457893D01*
X196967104Y-99484836D01*
X196980044Y-99501906D01*
X196999894Y-99533562D01*
X197003008Y-99533562D01*
X197004038Y-99519365D01*
X197010702Y-99482271D01*
X197011918Y-99478211D01*
X197028653Y-99445268D01*
X197059245Y-99423103D01*
X197067850Y-99420248D01*
X197104308Y-99415776D01*
X197141127Y-99418157D01*
G37*
G36*
X197568858Y-99427500D02*
G01*
X197568858Y-99786536D01*
X197567575Y-99824501D01*
X197563728Y-99855596D01*
X197552119Y-99891282D01*
X197546509Y-99900476D01*
X197517240Y-99923563D01*
X197514819Y-99924473D01*
X197477163Y-99931366D01*
X197466825Y-99931617D01*
X197429123Y-99925989D01*
X197413702Y-99919710D01*
X197383235Y-99897368D01*
X197373219Y-99885638D01*
X197354654Y-99851971D01*
X197347574Y-99830683D01*
X197340570Y-99793299D01*
X197338598Y-99755762D01*
X197338598Y-99427500D01*
X197246274Y-99427500D01*
X197246274Y-99870068D01*
X197246091Y-99907254D01*
X197245358Y-99944256D01*
X197244259Y-99974115D01*
X197243343Y-99990235D01*
X197330721Y-99990235D01*
X197331820Y-99976680D01*
X197333102Y-99951400D01*
X197334384Y-99922458D01*
X197334934Y-99897728D01*
X197336399Y-99897728D01*
X197355252Y-99929594D01*
X197363144Y-99940776D01*
X197388663Y-99967538D01*
X197396850Y-99973749D01*
X197430543Y-99991128D01*
X197441180Y-99994631D01*
X197477510Y-100001093D01*
X197499248Y-100001959D01*
X197536268Y-99999526D01*
X197573843Y-99990183D01*
X197599449Y-99977046D01*
X197627389Y-99949602D01*
X197644528Y-99917093D01*
X197650740Y-99897728D01*
X197652205Y-99897728D01*
X197671626Y-99929594D01*
X197680049Y-99940776D01*
X197706187Y-99966605D01*
X197716136Y-99973749D01*
X197749967Y-99990578D01*
X197762481Y-99994631D01*
X197799458Y-100001093D01*
X197821283Y-100001959D01*
X197858245Y-99999423D01*
X197894006Y-99990418D01*
X197926611Y-99972475D01*
X197944381Y-99955064D01*
X197963976Y-99921660D01*
X197973141Y-99893148D01*
X197979846Y-99854632D01*
X197982337Y-99816172D01*
X197982483Y-99803389D01*
X197982483Y-99427500D01*
X197890892Y-99427500D01*
X197890892Y-99786536D01*
X197889609Y-99824501D01*
X197885763Y-99855596D01*
X197874153Y-99891282D01*
X197868544Y-99900476D01*
X197839274Y-99923563D01*
X197836853Y-99924473D01*
X197799198Y-99931366D01*
X197788859Y-99931617D01*
X197751157Y-99926249D01*
X197735736Y-99920259D01*
X197705269Y-99898613D01*
X197695253Y-99887103D01*
X197676688Y-99853519D01*
X197669608Y-99832149D01*
X197662604Y-99794168D01*
X197660632Y-99755762D01*
X197660632Y-99427500D01*
X197568858Y-99427500D01*
G37*
G36*
X198143683Y-99427500D02*
G01*
X198143683Y-99544736D01*
X198244067Y-99544736D01*
X198244067Y-99427500D01*
X198143683Y-99427500D01*
G37*
M02*
